# xmcd CD database file
#
# Track frame offsets:
#	150
#	9917
#	20070
#	44700
#	51420
#	65670
#	76477
#	83272
#	102185
#	108027
#	121227
#	136282
#	152192
#	173497
#	183259
#	188992
#	208965
#	220915
#	230942
#	243812
#	250677
#	256042
#	261512
#	265512
#	274577
#	291055
#	303972
#
# Disc length: 4286 seconds
#
# Revision: 4
# Processed by: cddbd v1.5.2PL0 Copyright (c) Steve Scherf et al.
# Submitted via: CDex 1.51
#
DISCID=7710bc1b
DTITLE=Marin Marais - Pièces de Viole - Troisième Livre (1711) - Deuxième Partie  [CD1]
DYEAR=2006
DGENRE=Classique
TTITLE0=Suite en sol mineur N°VI - Prélude 76
TTITLE1=Suite en sol mineur N°VI - Caprice 77
TTITLE2=Suite en sol mineur N°VI - Allemande et son double 78-80
TTITLE3=Suite en sol mineur N°VI - Courante 79
TTITLE4=Suite en sol mineur N°VI - Sarabande 81
TTITLE5=Suite en sol mineur N°VI - Gigue La Chicane 82
TTITLE6=Suite en sol mineur N°VI - 2ème Gigue 83
TTITLE7=Suite en sol mineur N°VI - Rondeau Louré 84
TTITLE8=Suite en sol mineur N°VI - Gavotte 85
TTITLE9=Suite en sol mineur N°VI - Plainte 86
TTITLE10=Suite en sol mineur N°VI - Menuet, Menuet Fantasque et son double 87-88-89
TTITLE11=Suite en sol mineur N°VI - Fugue Gay 90
TTITLE12=Suite en sol mineur N°VI - Le Moulinet 91
TTITLE13=Suite en sol majeur N°VII - Prélude 92
TTITLE14=Suite en sol majeur N°VII - Caprice 93
TTITLE15=Suite en sol majeur N°VII - Alleamande et son double 94-95
TTITLE16=Suite en sol majeur N°VII - Allemande La Magnifique et son double 96-97
TTITLE17=Suite en sol majeur N°VII - Courante 98
TTITLE18=Suite en sol majeur N°VII - Sarabande grave 99
TTITLE19=Suite en sol majeur N°VII - Gigue à l'Anglaise 100
TTITLE20=Suite en sol majeur N°VII - Gigue Le Petite 101
TTITLE21=Suite en sol majeur N°VII - Gavotte 102
TTITLE22=Suite en sol majeur N°VII - Menuet 103
TTITLE23=Suite en sol majeur N°VII - Menuet Le Cor de Chasse 104
TTITLE24=Suite en sol majeur N°VII - La Muzette 105
TTITLE25=Suite en sol majeur N°VII - 2ème Muzette 106
TTITLE26=Suite en sol majeur N°VII - La Guitare 107
EXTD=YEAR: 2006
EXTT0=
EXTT1=
EXTT2=
EXTT3=
EXTT4=
EXTT5=
EXTT6=
EXTT7=
EXTT8=
EXTT9=
EXTT10=
EXTT11=
EXTT12=
EXTT13=
EXTT14=
EXTT15=
EXTT16=
EXTT17=
EXTT18=
EXTT19=
EXTT20=
EXTT21=
EXTT22=
EXTT23=
EXTT24=
EXTT25=
EXTT26=
PLAYORDER=
